<svg width="452" height="326" viewBox="0 0 452 326" fill="none" xmlns="http://www.w3.org/2000/svg">
<g clip-path="url(#clip0_500_33762)">
<path d="M479.758 -0.5495H-28.6338V326.512H479.758V-0.5495Z" fill="#06A747"/>
<path d="M328.147 22.5517C257.081 22.5517 185.963 22.5517 114.897 22.5517C116.761 18.0843 117.694 15.8506 119.558 11.3832C187.517 11.3832 255.475 11.3832 323.433 11.3832C325.35 15.8506 326.282 18.0843 328.147 22.5517Z" fill="#069F43"/>
<path d="M341.096 52.7068C261.535 52.7068 182.026 52.7068 102.465 52.7068C104.796 47.0637 105.936 44.2422 108.318 38.5403C183.891 38.5403 259.463 38.5403 335.036 38.5403C337.418 44.1834 338.61 47.0637 341.096 52.7068Z" fill="#069F43"/>
<path d="M357.205 89.7981C267.233 89.7981 177.312 89.7981 87.3403 89.7981C90.1892 82.7443 93.0898 75.6317 95.9387 68.5779C179.954 68.5779 263.918 68.5779 347.933 68.5779C351.041 75.6317 354.097 82.6855 357.205 89.7981Z" fill="#069F43"/>
<path d="M415.839 223.292H33.5747L51.2376 178.617H396.674L415.839 223.292Z" fill="#069F43"/>
<path d="M384.347 151.284C277.126 151.284 169.905 151.284 62.6848 151.284C66.984 140.468 71.335 129.711 75.6342 118.895C173.738 118.895 271.895 118.895 369.999 118.895C374.764 129.711 379.529 140.468 384.347 151.284Z" fill="#069F43"/>
<path d="M447.073 295.417C299.399 295.417 151.725 295.417 4.10205 295.417C10.2141 280.898 16.2226 266.379 22.1793 251.801C157.629 251.801 293.028 251.801 428.478 251.801C434.745 266.32 440.909 280.839 447.073 295.417Z" fill="#069F43"/>
<path d="M446.763 295.417H4.41284L119.04 11.3832H324.676L446.763 295.417Z" stroke="#5BC97D" stroke-miterlimit="10"/>
<path d="M99.3574 295.417L122.096 200.543H326.852L349.591 295.417" stroke="#5BC97D" stroke-miterlimit="10"/>
<path d="M157.008 295.417L163.172 251.801H284.792L290.645 295.417" stroke="#5BC97D" stroke-miterlimit="10"/>
<path d="M224.137 118.895C243.905 118.895 259.929 110.921 259.929 101.084C259.929 91.2475 243.905 83.2733 224.137 83.2733C204.37 83.2733 188.345 91.2475 188.345 101.084C188.345 110.921 204.37 118.895 224.137 118.895Z" stroke="#5BC97D" stroke-miterlimit="10"/>
<path d="M179.229 200.543C182.648 186.435 199.326 174.738 224.137 174.738C248.948 174.738 265.109 185.73 269.046 200.543" stroke="#5BC97D" stroke-miterlimit="10"/>
<path d="M281.218 11.3832L288.159 39.4809H160.064L167.057 11.3832" stroke="#5BC97D" stroke-miterlimit="10"/>
<path d="M255.319 11.3832L256.666 22.5517H191.505L193.059 11.3832" stroke="#5BC97D" stroke-miterlimit="10"/>
<path d="M252.212 39.4809C250.088 46.182 239.832 51.7663 224.604 51.7663C209.375 51.7663 199.43 46.5347 196.996 39.4809" stroke="#5BC97D" stroke-miterlimit="10"/>
<path d="M82.834 101.084H363.213" stroke="#5BC97D" stroke-miterlimit="10"/>
</g>
<defs>
<clipPath id="clip0_500_33762">
<rect width="452" height="326" fill="white"/>
</clipPath>
</defs>
</svg>
